<svg width="0" height="0" class="hidden">
  <symbol xmlns="http://www.w3.org/2000/svg" viewBox="0 0 512 512" id="cog">
    <path fill="currentColor" d="M444.788 291.1l42.616 24.599c4.867 2.809 7.126 8.618 5.459 13.985-11.07 35.642-29.97 67.842-54.689 94.586a12.016 12.016 0 0 1-14.832 2.254l-42.584-24.595a191.577 191.577 0 0 1-60.759 35.13v49.182a12.01 12.01 0 0 1-9.377 11.718c-34.956 7.85-72.499 8.256-109.219.007-5.49-1.233-9.403-6.096-9.403-11.723v-49.184a191.555 191.555 0 0 1-60.759-35.13l-42.584 24.595a12.016 12.016 0 0 1-14.832-2.254c-24.718-26.744-43.619-58.944-54.689-94.586-1.667-5.366.592-11.175 5.459-13.985L67.212 291.1a193.48 193.48 0 0 1 0-70.199l-42.616-24.599c-4.867-2.809-7.126-8.618-5.459-13.985 11.07-35.642 29.97-67.842 54.689-94.586a12.016 12.016 0 0 1 14.832-2.254l42.584 24.595a191.577 191.577 0 0 1 60.759-35.13V25.759a12.01 12.01 0 0 1 9.377-11.718c34.956-7.85 72.499-8.256 109.219-.007 5.49 1.233 9.403 6.096 9.403 11.723v49.184a191.555 191.555 0 0 1 60.759 35.13l42.584-24.595a12.016 12.016 0 0 1 14.832 2.254c24.718 26.744 43.619 58.944 54.689 94.586 1.667 5.366-.592 11.175-5.459 13.985L444.788 220.9a193.485 193.485 0 0 1 0 70.2zM336 256c0-44.112-35.888-80-80-80s-80 35.888-80 80 35.888 80 80 80 80-35.888 80-80z"></path>
  </symbol>
  <symbol xmlns="http://www.w3.org/2000/svg" viewBox="0 0 512 512" id="download">
    <path fill="currentColor" d="M216 0h80c13.3 0 24 10.7 24 24v168h87.7c17.8 0 26.7 21.5 14.1 34.1L269.7 378.3c-7.5 7.5-19.8 7.5-27.3 0L90.1 226.1c-12.6-12.6-3.7-34.1 14.1-34.1H192V24c0-13.3 10.7-24 24-24zm296 376v112c0 13.3-10.7 24-24 24H24c-13.3 0-24-10.7-24-24V376c0-13.3 10.7-24 24-24h146.7l49 49c20.1 20.1 52.5 20.1 72.6 0l49-49H488c13.3 0 24 10.7 24 24zm-124 88c0-11-9-20-20-20s-20 9-20 20 9 20 20 20 20-9 20-20zm64 0c0-11-9-20-20-20s-20 9-20 20 9 20 20 20 20-9 20-20z"></path>
  </symbol>
  <symbol xmlns="http://www.w3.org/2000/svg" viewBox="0 0 576 512" id="home">
    <path fill="currentColor" d="M488 312.7V456c0 13.3-10.7 24-24 24H348c-6.6 0-12-5.4-12-12V356c0-6.6-5.4-12-12-12h-72c-6.6 0-12 5.4-12 12v112c0 6.6-5.4 12-12 12H112c-13.3 0-24-10.7-24-24V312.7c0-3.6 1.6-7 4.4-9.3l188-154.8c4.4-3.6 10.8-3.6 15.3 0l188 154.8c2.7 2.3 4.3 5.7 4.3 9.3zm83.6-60.9L488 182.9V44.4c0-6.6-5.4-12-12-12h-56c-6.6 0-12 5.4-12 12V117l-89.5-73.7c-17.7-14.6-43.3-14.6-61 0L4.4 251.8c-5.1 4.2-5.8 11.8-1.6 16.9l25.5 31c4.2 5.1 11.8 5.8 16.9 1.6l235.2-193.7c4.4-3.6 10.8-3.6 15.3 0l235.2 193.7c5.1 4.2 12.7 3.5 16.9-1.6l25.5-31c4.2-5.2 3.4-12.7-1.7-16.9z"></path>
  </symbol>
  <symbol xmlns="http://www.w3.org/2000/svg" viewBox="0 0 448 512" id="plus">
    <path fill="currentColor" d="M448 294.2v-76.4c0-13.3-10.7-24-24-24H286.2V56c0-13.3-10.7-24-24-24h-76.4c-13.3 0-24 10.7-24 24v137.8H24c-13.3 0-24 10.7-24 24v76.4c0 13.3 10.7 24 24 24h137.8V456c0 13.3 10.7 24 24 24h76.4c13.3 0 24-10.7 24-24V318.2H424c13.3 0 24-10.7 24-24z"></path>
  </symbol>
  <symbol xmlns="http://www.w3.org/2000/svg" viewBox="0 0 384 512" id="raindrop">
    <path fill="currentColor" d="M192 512c-98.435 0-178.087-79.652-178.087-178.087 0-111.196 101.194-154.065 148.522-311.825 9.104-30.116 51.099-28.778 59.13 0 47.546 158.486 148.522 200.069 148.522 311.825C370.087 432.348 290.435 512 192 512zm-42.522-171.826c-1.509-5.533-9.447-5.532-10.956 0-9.223 29.425-27.913 37.645-27.913 58.435C110.609 417.13 125.478 432 144 432s33.391-14.87 33.391-33.391c0-20.839-18.673-28.956-27.913-58.435z"></path>
  </symbol>
  <symbol xmlns="http://www.w3.org/2000/svg" viewBox="0 0 256 512" id="thermometer">
    <path fill="currentColor" d="M192 384c0 35.346-28.654 64-64 64-35.346 0-64-28.654-64-64 0-23.685 12.876-44.349 32-55.417V160c0-17.673 14.327-32 32-32s32 14.327 32 32v168.583c19.124 11.068 32 31.732 32 55.417zm32-84.653c19.912 22.563 32 52.194 32 84.653 0 70.696-57.303 128-128 128-.299 0-.609-.001-.909-.003C56.789 511.509-.357 453.636.002 383.333.166 351.135 12.225 321.755 32 299.347V96c0-53.019 42.981-96 96-96s96 42.981 96 96v203.347zM208 384c0-34.339-19.37-52.19-32-66.502V96c0-26.467-21.533-48-48-48S80 69.533 80 96v221.498c-12.732 14.428-31.825 32.1-31.999 66.08-.224 43.876 35.563 80.116 79.423 80.42L128 464c44.112 0 80-35.888 80-80z"></path>
  </symbol>
  <symbol xmlns="http://www.w3.org/2000/svg" viewBox="0 0 512 512" id="upload">
    <path fill="currentColor" d="M296 384h-80c-13.3 0-24-10.7-24-24V192h-87.7c-17.8 0-26.7-21.5-14.1-34.1L242.3 5.7c7.5-7.5 19.8-7.5 27.3 0l152.2 152.2c12.6 12.6 3.7 34.1-14.1 34.1H320v168c0 13.3-10.7 24-24 24zm216-8v112c0 13.3-10.7 24-24 24H24c-13.3 0-24-10.7-24-24V376c0-13.3 10.7-24 24-24h136v8c0 30.9 25.1 56 56 56h80c30.9 0 56-25.1 56-56v-8h136c13.3 0 24 10.7 24 24zm-124 88c0-11-9-20-20-20s-20 9-20 20 9 20 20 20 20-9 20-20zm64 0c0-11-9-20-20-20s-20 9-20 20 9 20 20 20 20-9 20-20z"></path>
  </symbol>
</svg>